# xmcd CD database file
#
# Track frame offsets:
#	150
#	12413
#	25717
#	43959
#	59354
#	75426
#	90786
#	105565
#	119513
#
# Disc length: 1759 seconds
#
# Revision: 1
# Processed by: cddbd v1.5.2PL0 Copyright (c) Steve Scherf et al.
# Submitted via: CDex 1.51
#
DISCID=6306dd09
DTITLE=Marty Haggard - Driftwood
DYEAR=2009
DGENRE=Country
TTITLE0=Troubador
TTITLE1=Carryin' Fire
TTITLE2=Last Thing On My Mind
TTITLE3=Half A Man
TTITLE4=Driftwood
TTITLE5=Long Black Veil
TTITLE6=Apple
TTITLE7=If There's Life After Death
TTITLE8=California Blues
EXTD=YEAR: 2009
EXTT0=
EXTT1=
EXTT2=
EXTT3=
EXTT4=
EXTT5=
EXTT6=
EXTT7=
EXTT8=
PLAYORDER=
